<?xml version="1.0" encoding="UTF-8" standalone="no"?>

<svg
xmlns:svg="http://www.w3.org/2000/svg"
xmlns="http://www.w3.org/2000/svg"
version="1.1"
width="650"
height="200"
id="logo"
xml:space="preserve">

<path
id="gandi"
d="m 203.25082,106.44108 c -8.96534,0 -10.7007,-6.503493 -10.7007,-16.912087 0,-12.723392 4.91496,-17.639341 11.13297,-17.639341 6.9389,0 10.55202,4.484048 10.55202,15.035194 0,12.576968 -3.32577,19.516234 -10.98429,19.516234 z m -5.78574,28.19136 c 0.86704,0.14406 1.7366,0.28897 2.74731,0.28897 12.7234,0.86668 16.48145,2.74609 16.48145,9.25495 0,5.0565 -4.48143,11.12709 -14.74609,11.12709 -9.8299,0 -12.1437,-3.61199 -12.1437,-8.23696 0,-4.62797 3.4707,-9.39899 7.66103,-12.43405 z m 13.88028,-70.25951 c -2.45872,-0.723374 -5.34972,-1.15565 -7.22875,-1.15565 -14.16639,0 -23.99878,7.949622 -23.99878,27.178388 0,9.25107 2.17137,17.204432 8.81917,21.540062 -4.19157,3.46844 -8.9641,9.3975 -9.10777,13.1548 -0.14492,3.75642 3.1796,6.36056 8.67425,7.95299 -6.0731,4.04528 -10.84187,9.8289 -10.84187,16.76617 0,7.52096 3.7593,16.48269 23.27416,16.48269 19.22626,0 27.61191,-11.2779 27.61191,-23.70994 0,-11.41832 -8.67299,-15.61301 -17.92569,-16.9106 -10.84187,-1.44899 -18.21679,-1.88089 -18.21679,-4.33861 0,-2.02534 1.88028,-4.48306 3.75805,-6.50688 1.88152,0.4334 4.04914,0.57782 6.50912,0.57782 16.76878,0 23.41909,-9.97619 23.41909,-25.297352 0,-7.22962 -2.17012,-12.723393 -5.64082,-16.336768 2.0252,0.436273 3.75929,0.722749 5.34972,0.722749 2.45872,0 4.04665,-1.447498 4.04665,-4.625972 0,-2.603648 -0.57595,-4.481923 -1.15441,-5.493897 l -17.34724,0 z M 125.65724,51.037356 c -5.12134,-3.625617 -12.20991,-2.412498 -15.83403,2.707344 -4.44881,6.290483 -9.37451,10.953061 -14.979096,14.173389 -0.516731,0.296721 -1.041459,0.581323 -1.570435,0.855057 -0.487497,0.252743 -0.982364,0.494368 -1.48023,0.724748 -5.233034,2.42549 -11.061631,3.698704 -17.799257,3.900723 C 67.255442,73.196598 61.42397,71.922384 56.188939,69.496894 49.29452,66.301803 43.396333,61.149604 38.154805,53.7447 34.531187,48.624858 27.442156,47.411739 22.32324,51.037356 c -5.12088,3.621869 -6.335097,10.710687 -2.710518,15.831528 7.487811,10.581382 16.581226,18.401071 27.026926,23.240308 2.051685,0.951256 4.144848,1.787197 6.290234,2.509446 -8.872393,6.406923 -18.465535,15.387002 -23.060761,27.697982 -4.770473,12.77612 -4.710442,26.60832 0.165926,38.95103 4.67867,11.84097 13.338797,21.47128 24.386809,27.11922 12.308483,6.29312 27.976597,6.30678 41.91036,0.0312 14.622784,-6.58154 24.160214,-18.63238 25.516004,-32.24207 1.42313,-14.32456 -5.44492,-27.07968 -17.50066,-32.49388 -12.486647,-5.60795 -26.572707,-1.60504 -35.883246,10.19447 -3.887106,4.92369 -3.044794,12.06748 1.8784,15.95309 4.925191,3.8876 12.067982,3.04429 15.95359,-1.8794 2.766687,-3.50543 5.955906,-4.79826 8.748456,-3.54404 2.380138,1.06933 4.731918,4.13411 4.19707,9.52393 -0.532973,5.3356 -5.220039,10.61699 -12.233396,13.77498 -7.589309,3.41334 -16.114757,3.58801 -22.248196,0.45339 -6.121821,-3.13063 -10.950939,-8.54295 -13.596939,-15.23909 -1.987343,-5.02627 -3.602254,-13.0421 -0.01121,-22.65723 2.692851,-7.21201 9.480827,-14.01711 21.363405,-21.41027 5.043756,-3.14049 10.453072,-6.06709 15.68273,-8.897246 6.031119,-3.26443 11.747274,-6.358448 16.767166,-9.672227 8.93336,-4.885588 16.79065,-12.074229 23.40097,-21.413632 3.62461,-5.12084 2.41087,-12.209659 -2.7091,-15.831528 z M 270.0024,127.69467 c -1.29808,1.44263 -4.91494,2.3133 -7.80594,2.3133 -5.63708,0 -9.25146,-0.58032 -9.25146,-13.01474 0,-12.7209 4.91245,-14.74185 10.69946,-14.74185 2.02145,0 4.91369,0.28748 6.79396,1.30158 0,10.40722 -0.43602,24.14171 -0.43602,24.14171 z m -2.59989,-64.47739 c -13.44427,0 -23.133,1.879025 -25.30062,3.470073 -1.01197,0.724624 -1.30057,2.16775 -1.30057,3.759298 0,1.0116 0.14492,5.058875 1.58917,7.517473 4.48392,-2.026197 13.87779,-3.327274 20.38442,-3.327274 4.48017,0 7.66351,1.73685 7.66351,8.530697 l 0,12.14157 c -2.89224,-1.441627 -7.37367,-1.8779 -10.98804,-1.8779 -9.25145,0 -18.79274,3.613372 -18.79274,23.709923 0,21.97298 10.1185,22.84253 20.67051,22.69523 9.39762,0 16.1916,-2.31518 20.09706,-4.77003 0,0 0.86831,-20.52833 0.86831,-45.829695 l 0,-8.384271 c 0,-13.00937 -5.4934,-17.635094 -14.89101,-17.635094 z M 67.915724,29.653462 c 1.454369,-1.455494 3.389365,-2.257578 5.445422,-2.257578 2.058556,0 3.993551,0.802084 5.447421,2.256328 1.455244,1.456743 2.257077,3.38949 2.257077,5.447171 0,2.058931 -0.801833,3.992927 -2.256077,5.445922 -1.45487,1.456744 -3.389865,2.257577 -5.448421,2.257577 -2.056057,0 -3.991053,-0.800833 -5.445422,-2.255078 -1.454745,-1.455494 -2.256579,-3.38949 -2.256579,-5.448421 0,-2.057681 0.801834,-3.990428 2.256579,-5.445921 z m 5.445422,31.662306 c 7.002738,0 13.587693,-2.727333 18.538747,-7.679761 4.950054,-4.94993 7.677138,-11.531512 7.677138,-18.536624 0,-7.002613 -2.727084,-13.585444 -7.678638,-18.537873 -4.949554,-4.949928 -11.534509,-7.6772618 -18.537247,-7.6772618 -7.00074,0 -13.584695,2.7273338 -18.536248,7.6797618 -4.951553,4.949929 -7.678138,11.53276 -7.678138,18.535373 0,7.002614 2.726585,13.586694 7.678637,18.536624 4.950554,4.952428 11.535009,7.679761 18.535749,7.679761 z M 458.08597,122.34395 c -5.20354,0 -8.09454,3.90373 -8.09454,8.38477 0,5.05937 2.02395,8.24285 8.09454,8.24285 5.05737,0 8.09955,-3.7578 8.09955,-8.24285 0,-5.05688 -2.17013,-8.38477 -8.09955,-8.38477 z m 48.54104,-59.12667 c -7.80345,0 -18.21429,2.167624 -23.85636,4.770648 l 0,69.679572 c 12.00252,0 11.71517,0 11.71517,-2.45373 l 0,-58.985495 c 3.17835,-2.021952 7.65727,-2.746575 10.84062,-2.746575 7.66101,0 8.52807,4.335125 8.52807,15.754945 l 0,48.430855 c 12.28611,0 12.14369,0 12.14369,-2.45373 l 0,-45.396427 c 0,-19.950516 -1.88277,-26.600063 -19.37119,-26.600063 z M 427.3282,31.846072 c -4.6251,0 -6.6503,3.470698 -6.6503,8.674246 -0.14492,6.793971 2.17137,8.961596 5.92692,9.10777 4.33525,0 6.50662,-3.469448 6.65029,-9.39637 0,-6.071847 -1.4455,-8.385646 -5.92691,-8.385646 z m -84.78972,57.971271 c 0,-19.950516 -1.88027,-26.600063 -19.36994,-26.600063 -7.8072,0 -18.21679,2.167624 -23.85387,4.770648 l 0,69.679572 c 12.00127,0 11.71018,0 11.71018,-2.45373 l 0,-58.985495 c 3.17835,-2.021952 7.66102,-2.746575 10.84312,-2.746575 7.66227,0 8.52932,4.335125 8.52932,15.754945 l 0,48.430855 c 12.28736,0 12.14119,0 12.14119,-2.45373 l 0,-45.396427 z m 230.40784,7.371173 C 567.88894,98.635513 558.9236,98.92249 553.28778,98.779564 554.15233,78.6845 559.5033,73.4817 565.43022,73.4817 c 6.21552,0 8.09455,4.335125 8.23697,14.744719 0,2.748074 -0.14242,6.360947 -0.72087,8.962097 z m 12.14494,-10.26367 c 0,-15.466595 -6.21677,-23.707566 -18.36421,-23.707566 -12.86457,0 -25.58547,4.482173 -25.58547,42.06915 0,29.49007 9.68748,34.54994 23.13299,34.54994 10.84187,0 19.94465,-3.47182 19.94465,-5.49227 0,-3.17998 -0.28361,-8.24085 -1.00823,-10.40923 -4.9162,2.7447 -10.7007,4.48255 -17.63835,4.48255 -7.80719,0 -11.85259,-2.60402 -12.28486,-20.09494 6.9339,0 20.23699,-0.29047 30.21305,-2.3148 1.1569,-5.20379 1.59043,-12.576463 1.59043,-19.082834 z M 390.35864,127.11635 c -2.31505,1.58904 -5.35222,2.16687 -8.53306,2.16687 -6.79272,0 -10.83688,-3.17997 -10.83688,-26.45351 0,-23.71131 6.35795,-29.34801 12.7184,-29.34801 3.03093,0 4.77003,0.432275 6.65154,1.878902 l 0,51.755748 z m 0,-90.352831 0,29.34601 c -2.45996,-1.736599 -5.78324,-2.892249 -10.26716,-2.892249 -12.4298,0 -22.26469,12.288246 -22.26469,40.9125 0,31.37147 9.83489,35.70659 23.56402,35.70659 8.96783,0 15.76056,-1.44563 20.67426,-4.33512 l 0,-104.089952 c -9.54255,0 -11.70643,0 -11.70643,5.352221 z m 30.46544,33.970982 0,66.932999 c 11.85508,0 11.99876,0 11.99876,-2.45373 l 0,-69.828866 c -9.54129,0 -11.99876,0 -11.99876,5.349597 z m 202.10378,59.127049 c -5.1998,0 -5.1998,-5.20293 -5.1998,-11.42033 l 0,-42.935694 12.43105,0 c 2.31629,0 2.31629,-1.012727 2.31629,-10.120622 l -14.74734,0 0,-26.020236 c -9.54129,0 -11.70642,0 -11.70642,4.049148 l 0,21.971088 -7.37742,0 c -2.45747,0 -2.59989,1.157524 -2.59989,10.120622 l 9.97731,0 0,41.635614 c 0,13.01076 0,22.84253 13.72912,22.84253 5.63832,0 12.43355,-1.15953 12.43355,-4.62985 0,-2.89012 -0.43353,-6.0706 -0.8708,-7.65915 -3.03343,1.30058 -4.3365,2.16688 -8.38565,2.16688"
style="fill:#231f20;fill-opacity:1;fill-rule:nonzero;stroke:none" />

</svg>