<?xml version="1.0" encoding="UTF-8" standalone="no"?>
<!-- Created with Inkscape (http://www.inkscape.org/) -->

<svg
   xmlns:dc="http://purl.org/dc/elements/1.1/"
   xmlns:cc="http://creativecommons.org/ns#"
   xmlns:rdf="http://www.w3.org/1999/02/22-rdf-syntax-ns#"
   xmlns:svg="http://www.w3.org/2000/svg"
   xmlns="http://www.w3.org/2000/svg"
   xmlns:sodipodi="http://sodipodi.sourceforge.net/DTD/sodipodi-0.dtd"
   xmlns:inkscape="http://www.inkscape.org/namespaces/inkscape"
   id="svg2"
   version="1.1"
   inkscape:version="0.91 r13725"
   xml:space="preserve"
   width="238.65875"
   height="246.22375"
   viewBox="0 0 238.65875 246.22374"
   sodipodi:docname="sciencecentre.svg"><metadata
     id="metadata8"><rdf:RDF><cc:Work
         rdf:about=""><dc:format>image/svg+xml</dc:format><dc:type
           rdf:resource="http://purl.org/dc/dcmitype/StillImage" /><dc:title></dc:title></cc:Work></rdf:RDF></metadata><defs
     id="defs6"><clipPath
       clipPathUnits="userSpaceOnUse"
       id="clipPath16"><path
         d="m 0,841.89 595.275,0 L 595.275,0 0,0 0,841.89 Z"
         id="path18"
         inkscape:connector-curvature="0" /></clipPath><clipPath
       clipPathUnits="userSpaceOnUse"
       id="clipPath122"><path
         d="m 0,841.89 595.275,0 L 595.275,0 0,0 0,841.89 Z"
         id="path124"
         inkscape:connector-curvature="0" /></clipPath><clipPath
       clipPathUnits="userSpaceOnUse"
       id="clipPath312"><path
         d="m 0,841.89 595.275,0 L 595.275,0 0,0 0,841.89 Z"
         id="path314"
         inkscape:connector-curvature="0" /></clipPath></defs><sodipodi:namedview
     pagecolor="#ffffff"
     bordercolor="#666666"
     borderopacity="1"
     objecttolerance="10"
     gridtolerance="10"
     guidetolerance="10"
     inkscape:pageopacity="0"
     inkscape:pageshadow="2"
     inkscape:window-width="1366"
     inkscape:window-height="742"
     id="namedview4"
     showgrid="false"
     fit-margin-top="0"
     fit-margin-left="0"
     fit-margin-right="0"
     fit-margin-bottom="0"
     inkscape:zoom="1.7940585"
     inkscape:cx="87.328225"
     inkscape:cy="121.52447"
     inkscape:window-x="0"
     inkscape:window-y="0"
     inkscape:window-maximized="1"
     inkscape:current-layer="g10" /><g
     id="g10"
     inkscape:groupmode="layer"
     inkscape:label="SCS logo_new branding (Nov 2015)"
     transform="matrix(1.25,0,0,-1.25,-822.60802,321.30415)"><g
       id="g4344"
       transform="translate(333.54542,14.269323)"><path
         inkscape:connector-curvature="0"
         id="path298"
         style="fill:#f04c22;fill-opacity:1;fill-rule:nonzero;stroke:none"
         d="m 515.468,45.795 -190.927,0 0,196.979 190.927,0 0,-196.979 z" /><g
         transform="translate(415,154.4023)"
         id="g402"><path
           inkscape:connector-curvature="0"
           id="path404"
           style="fill:#ffffff;fill-opacity:1;fill-rule:nonzero;stroke:none"
           d="m 0,0 c 6.809,-15.783 17.959,-34.581 17.959,-34.581 -0.203,-0.171 -18.507,18.538 -26.588,29.552 -2.919,3.98 -8.783,2.357 -6.828,-3.45 5.412,-16.187 13.248,-31.12 25.076,-42.19 4.627,-4.349 6.793,-3.964 10.246,-2.508 2.043,0.868 -0.627,1.427 -3.066,3.827 -6.717,6.632 -11.508,12.574 -14.891,20.246 5.127,-6.251 12.49,-13.494 18.959,-17.828 2.137,-1.422 6.772,-4.331 9.421,-3.095 3.447,1.609 2.921,4.56 0.286,9.185 C 18.963,-20.381 13.65,-8.738 8.25,2.059 5.611,7.314 -1.648,3.805 0,0" /></g><g
         transform="translate(428.4844,163.2402)"
         id="g406"><path
           inkscape:connector-curvature="0"
           id="path408"
           style="fill:#ffffff;fill-opacity:1;fill-rule:nonzero;stroke:none"
           d="m 0,0 c -2.014,-1.191 -3.869,-3.376 -2.436,-6.295 1.432,-2.914 2.377,-6.043 6.497,-4.182 4.121,1.86 3.575,2.272 4.548,-0.425 4.907,-12.051 9.303,-25.366 13.053,-36.914 0.609,-2.444 1.872,-7.911 3.641,-7.607 1.654,0.277 4.492,2.249 5.115,3.478 1.564,4.226 -7.936,28.487 -10.881,36.269 -1.402,4.703 -5.137,9.969 -2.719,12.002 2.101,1.752 4.043,2.532 3.698,5.23 -1.814,8.117 -5.602,5.23 -7.567,4.315 C 11.551,5.157 1.426,0.832 0,0" /></g><g
         transform="translate(418.043,104.7725)"
         id="g410"><path
           inkscape:connector-curvature="0"
           id="path412"
           style="fill:#ffffff;fill-opacity:1;fill-rule:nonzero;stroke:none"
           d="m 0,0 c -2.869,0.562 -4.049,-1.422 -7.994,0.346 -3.969,1.758 -4.985,3.851 -6.391,6.868 0.223,3.356 7.294,1.14 5.077,6.018 -1.588,2.866 -2.87,4.808 -6.223,4.397 -4.025,-0.831 -5.199,-2.14 -7.194,-0.19 -2.013,1.947 -4.437,6.233 -5.996,9.58 -0.653,1.74 -1.33,3.676 1.668,4.485 1.981,0.525 4.682,1.35 4.147,3.859 -0.324,1.552 -1.262,4.231 -2.537,5.38 -1.508,1.35 -4.12,0.04 -5.438,-0.691 -0.795,-0.436 -2.291,-1.257 -3.074,-1.752 -6.014,-3.516 -3.379,-11.153 -0.44,-15.74 5.881,-9.273 15.336,-20.886 20.658,-25.329 5.333,-4.438 11.038,-5.556 16.819,-3.903 1.732,0.571 2.022,1.206 1.826,2.584 C 4.763,-2.987 1.865,-0.354 0,0" /></g><g
         transform="translate(394.0293,105.6533)"
         id="g414"><path
           inkscape:connector-curvature="0"
           id="path416"
           style="fill:#ffffff;fill-opacity:1;fill-rule:nonzero;stroke:none"
           d="m 0,0 c -7.922,2.833 -15.657,8.82 -20.551,16.804 -1.127,1.838 -2.699,5.832 0.039,5.648 2.385,-0.158 3.116,-0.685 4.278,0.628 1.486,1.632 1.771,4.058 -0.133,5.755 -2.643,2.379 -7.203,3.124 -11.533,1.09 -4.315,-2.019 -2.817,-8.99 0.957,-15.008 C -19.701,3.336 -11.738,-1.066 -5.314,-4.143 -2.077,-5.677 5.188,-8.631 5.934,-6.559 6.896,-3.899 5.723,-1.664 0,0" /></g><g
         transform="translate(479.3242,188.2939)"
         id="g418"><path
           inkscape:connector-curvature="0"
           id="path420"
           style="fill:#ffffff;fill-opacity:1;fill-rule:nonzero;stroke:none"
           d="m 0,0 c -2.523,-1.773 -8.428,-5.009 -9.426,-7.231 -0.986,-2.225 8.523,-27.454 9.098,-42.672 0.425,-2.405 1.922,-1.791 2.785,-1.228 2.117,1.405 4.439,8.96 5.268,14.023 0.183,1.15 0.486,2.703 0.57,3.478 0.268,2.315 -0.584,3.725 -1.338,3.457 -1.25,-0.449 -3.219,-5.498 -3.41,-4.657 -0.426,1.936 -1.414,6.101 -1.574,7.716 -0.284,2.689 4.013,3.734 4.545,6.401 0.824,4.224 -0.346,6.934 -2.409,5.636 -1.681,-1.041 -3.869,-3.45 -4.386,-3.324 -0.721,0.732 -1.812,5.767 -1.782,6.687 -0.543,3.848 4.264,3.273 5.061,6.254 C 3.436,-4.062 2.396,1.702 0,0" /></g><g
         transform="translate(466.2578,156.9004)"
         id="g422"><path
           inkscape:connector-curvature="0"
           id="path424"
           style="fill:#ffffff;fill-opacity:1;fill-rule:nonzero;stroke:none"
           d="m 0,0 c 0.446,-2.748 -0.531,-4.832 -0.531,-4.832 0,0 -1.156,-3.296 -1.844,-1.757 -0.947,4.275 -2.059,8.005 -4.369,14.632 -0.588,2.917 0.693,3.326 2.19,3.328 C -2.188,11.355 -0.572,3.492 0,0 m -6.441,21.086 c -2.852,-1.068 -5.686,-2.33 -7.034,-3.252 -1.359,-0.943 -3.99,-2.656 -1.663,-8.387 6.29,-18.345 13.032,-44.991 13.521,-50.276 0.198,-2.154 2.992,0.733 4.26,2.008 1.253,1.271 2.068,2.048 1.783,3.694 -0.721,4.121 -1.963,8.973 -3.655,14.018 0,0 -0.845,2.907 0.53,1.541 3.092,-4.352 4.974,-9.106 6.228,-13.423 0,0 0.352,-0.756 1.084,0.31 1.057,0.962 3.131,5.406 3.131,5.406 0,0 0.901,2.572 0.147,3.766 -2.211,4.363 -5.197,8.611 -9.078,12.349 0,0 2.64,4.008 2.748,10.858 0.076,4.187 -1.42,9.289 -2.62,13.749 -0.896,3.326 -4.496,9.885 -9.382,7.639" /></g><g
         transform="translate(409.291,161.2305)"
         id="g426"><path
           inkscape:connector-curvature="0"
           id="path428"
           style="fill:#ffffff;fill-opacity:1;fill-rule:nonzero;stroke:none"
           d="M 0,0 C 3.789,-0.814 7.422,2.904 8.424,6.646 9.08,12.145 6.018,13.889 1.586,12.032 -2.646,10.266 -9.1,23.271 -10.051,26.15 c -1.221,3.598 -1.875,5.531 0.203,7.208 3.467,2.494 5.088,3.636 2.977,7.349 -1.234,1.684 -3.699,0.763 -5.307,0.056 -3.685,-1.621 -3.646,4.246 -4.039,7.463 -0.398,3.248 0.588,5.383 1.571,6.417 0.874,0.953 0.227,6.541 -1.879,5.557 -2.514,-0.888 -4.131,-2.969 -5.016,-5.636 -1.455,-4.773 -0.939,-12.973 0.602,-18.846 2.826,-9.745 4.423,-15.419 10.681,-26.068 C -8.777,7.356 -7.377,5.242 -5.322,3.302 -3.636,1.703 -2.213,0.412 0,0" /></g><g
         transform="translate(359.7305,189.2881)"
         id="g430"><path
           inkscape:connector-curvature="0"
           id="path432"
           style="fill:#ffffff;fill-opacity:1;fill-rule:nonzero;stroke:none"
           d="m 0,0 c -1.68,-0.092 -3.377,-1.964 -4.375,-3.116 -1.131,-1.328 -2.939,-4.832 -3.418,-7.026 -1.256,-5.73 -1.301,-10.345 5.348,-20.173 1.4,-2.067 4.965,-6.226 5.652,-7.172 2.795,-3.85 1.541,-6.506 -1.144,-5.403 -1.344,0.543 -2.348,2.502 -2.836,3.087 -1.28,1.469 -4.34,0.042 -2.665,-3.639 1.495,-4.477 5.876,-6.962 10.049,-6.581 4.155,0.374 10.1,5.851 3.559,15.381 -2.451,3.559 -5.84,6.549 -8.994,10.98 -3.203,4.508 -4.684,8.289 -3.147,13.135 0.809,2.539 1.811,3.118 3.078,3.522 1.084,0.371 1.342,2.149 1.358,2.78 C 2.482,-1.819 1.441,0.075 0,0" /></g><g
         transform="translate(371.0352,205.0381)"
         id="g434"><path
           inkscape:connector-curvature="0"
           id="path436"
           style="fill:#ffffff;fill-opacity:1;fill-rule:nonzero;stroke:none"
           d="m 0,0 c -10.242,-5.387 -8.328,-27.12 -2.133,-42.742 2.772,-7.023 9.906,-18.3 17.446,-13.347 3.772,2.483 4.055,6.193 2.254,9.274 -2.296,3.933 -5.276,2.392 -6.452,0.976 -0.722,-0.881 -2.499,-0.768 -4.213,1.455 -6.283,8.192 -7.338,19.873 -7.64,26.893 -0.297,6.683 1.953,6.816 2.47,9.558 C 4.264,-1.972 2.012,1.042 0,0" /></g><g
         transform="translate(412.2246,204.8477)"
         id="g438"><path
           inkscape:connector-curvature="0"
           id="path440"
           style="fill:#ffffff;fill-opacity:1;fill-rule:nonzero;stroke:none"
           d="m 0,0 c 0.141,0.127 15.246,-15.817 25.057,-26.095 6.3,-6.624 11.084,-0.86 9.057,3.486 C 27.496,-8.416 12.242,15.846 3.359,21.467 1.498,22.656 -2.576,22.871 -3.828,21.827 -4.738,21.07 -4.227,20.017 -3.033,19 5.498,9.779 13.709,-2.814 13.709,-2.814 13.668,-2.835 -3.414,13.524 -12.33,18.404 c -1.959,1.07 -4.42,-0.849 -3.576,-2.502 11.824,-22.813 17.42,-35.474 21.27,-45.025 1.652,-4.071 3.699,-8.525 6.87,-8.214 2.396,0.226 5.082,3.244 2.612,8.537 C 4.826,-7.307 0,0 0,0" /></g><g
         transform="translate(460.0313,195.2246)"
         id="g442"><path
           inkscape:connector-curvature="0"
           id="path444"
           style="fill:#ffffff;fill-opacity:1;fill-rule:nonzero;stroke:none"
           d="m 0,0 c -3.422,1.135 -3.633,-5.556 -8.09,0.64 -3.521,4.875 -5.926,8.364 -15.772,22.963 -3.763,5.569 1.942,0.69 2.96,0.958 1.893,0.491 -0.54,7.139 -4.261,7.982 -13.813,3.117 -12.386,-0.747 -7.341,-7.648 14.924,-20.397 19.943,-35.385 26.278,-38.131 3.384,-1.485 7.43,1.654 8.492,3.959 C 3.852,-5.911 2.799,-0.93 0,0" /></g><g
         transform="translate(476.4434,197.1953)"
         id="g446"><path
           inkscape:connector-curvature="0"
           id="path448"
           style="fill:#ffffff;fill-opacity:1;fill-rule:nonzero;stroke:none"
           d="m 0,0 c -1.713,2.021 -3.954,-1.17 -4.75,-1.258 -1.092,-0.125 -1.219,-0.977 -3.905,3.207 -3.288,5.149 -4.542,5.42 -4.638,6.293 -0.256,2.295 6.168,1.543 3.405,4.906 -3.714,4.525 -4.423,-1.375 -10.718,4.076 -1.466,1.279 -3.783,4.07 -3.648,4.932 0.129,0.867 3.938,-1.043 4.695,-0.251 0.35,0.386 0.325,1.652 -0.862,2.476 -2.479,1.724 -6.397,3.295 -9.923,4.594 -4.031,1.478 -6.367,-0.911 -3.832,-4.311 6.74,-8.976 15.755,-15.202 25.008,-34.011 1.964,-3.997 8.025,1.868 9.016,2.627 C 2.104,-4.98 1.271,-1.493 0,0" /></g><g
         transform="translate(384.1133,210.2607)"
         id="g450"><path
           inkscape:connector-curvature="0"
           id="path452"
           style="fill:#ffffff;fill-opacity:1;fill-rule:nonzero;stroke:none"
           d="m 0,0 c 0.102,4.055 -1.754,4.587 -2.816,4.3 -1.686,-0.459 -3.215,-3.086 -3.705,-4.315 -4.848,-12.217 4.423,-33.172 10.959,-47.77 1.558,-3.097 3.886,-8.333 7.687,-8.124 4.049,0.219 5.426,3.404 3.506,6.709 C 11.801,-42.933 -1.955,-17.725 0,0" /></g><g
         transform="translate(380.6895,70.4961)"
         id="g454"><path
           inkscape:connector-curvature="0"
           id="path456"
           style="fill:#ffffff;fill-opacity:1;fill-rule:nonzero;stroke:none"
           d="m 0,0 c -1.465,0 -2.859,0.494 -2.859,0.494 l 0,2.602 c 0,0 1.785,-0.493 2.431,-0.493 0.794,0 1.27,0.234 1.27,0.965 0,0.624 -0.457,0.841 -1.014,1.12 L -0.818,5.01 c -0.816,0.408 -2.172,1.161 -2.172,3.205 0,2.797 2.088,3.614 4.045,3.614 1.506,0 2.666,-0.516 2.666,-0.516 l 0,-2.495 c 0,0 -1.27,0.45 -2.388,0.45 -0.622,0 -1.03,-0.28 -1.03,-0.837 0,-0.667 0.515,-0.819 1.115,-1.142 L 2.063,6.944 C 2.971,6.474 4.152,5.721 4.152,3.741 4.152,0.535 1.869,0 0,0" /></g><path
         inkscape:connector-curvature="0"
         id="path458"
         style="fill:#ffffff;fill-opacity:1;fill-rule:nonzero;stroke:none"
         d="m 386.473,82.109 3.422,0 0,-11.399 -3.422,0 0,11.399 z m 1.701,1.507 c -1.012,0 -1.783,0.838 -1.783,1.827 0,0.989 0.771,1.806 1.783,1.806 1.012,0 1.81,-0.817 1.81,-1.806 0,-0.989 -0.798,-1.827 -1.81,-1.827" /><g
         transform="translate(397.875,70.71)"
         id="g460"><path
           inkscape:connector-curvature="0"
           id="path462"
           style="fill:#ffffff;fill-opacity:1;fill-rule:nonzero;stroke:none"
           d="m 0,0 0,7.786 c 0,0.689 -0.129,0.902 -0.711,0.902 -0.73,0 -1.68,-0.515 -1.68,-0.515 l 0,-8.173 -3.422,0 0,11.399 2.713,0 0.645,-0.902 c 0,0 1.249,1.118 3.031,1.118 1.852,0 2.842,-0.968 2.842,-3.078 L 3.418,0 0,0 Z" /></g><g
         transform="translate(407.4209,80.3662)"
         id="g464"><path
           inkscape:connector-curvature="0"
           id="path466"
           style="fill:#ffffff;fill-opacity:1;fill-rule:nonzero;stroke:none"
           d="m 0,0 c -0.642,0 -1.009,-0.322 -1.009,-1.912 0,-1.85 0.26,-2.174 1.009,-2.174 0.819,0 1.013,0.345 1.013,2.174 C 1.013,-0.277 0.733,0 0,0 m 0.712,-9.656 -1.74,0.173 c -0.235,-0.41 -0.432,-0.905 -0.432,-1.357 0,-0.858 0.558,-1.162 1.312,-1.162 1.292,0 2.086,0.237 2.086,1.29 0,0.842 -0.492,0.991 -1.226,1.056 m 3.142,9.249 c 0.323,-0.495 0.538,-1.098 0.538,-1.635 0,-3.227 -1.895,-4.001 -4.392,-4.001 -0.665,0 -1.31,0.128 -1.31,0.128 0,0 -0.239,-0.276 -0.239,-0.516 0,-0.408 0.263,-0.557 0.843,-0.602 L 1.79,-7.248 c 2.195,-0.192 3.506,-0.731 3.506,-3.14 0,-2.797 -1.873,-3.615 -5.551,-3.615 -2.818,0 -4.517,0.516 -4.517,2.668 0,1.054 0.73,1.914 1.46,2.388 -0.644,0.368 -1.029,0.946 -1.029,1.828 0,0.948 0.708,1.613 1.352,1.957 -0.815,0.646 -1.397,1.635 -1.397,3.25 0,3.098 2.131,3.871 4.386,3.871 0.755,0 1.251,-0.216 1.79,-0.216 l 3.721,0 0,-2.193 -1.657,0.043 z" /></g><g
         transform="translate(418.4355,76.2168)"
         id="g468"><path
           inkscape:connector-curvature="0"
           id="path470"
           style="fill:#ffffff;fill-opacity:1;fill-rule:nonzero;stroke:none"
           d="m 0,0 -0.688,-0.021 c -0.882,-0.023 -1.181,-0.411 -1.181,-1.873 0,-1.224 0.344,-1.548 0.879,-1.548 0.517,0 0.99,0.343 0.99,0.343 L 0,0 Z m 0.582,-5.507 -0.516,0.861 c 0,0 -0.754,-1.075 -2.152,-1.075 -1.247,0 -3.141,0.364 -3.141,3.679 0,3.438 2.668,3.85 4.108,3.85 l 1.119,0 0,0.773 c 0,0.622 -0.258,0.924 -1.203,0.924 -1.096,0 -3.014,-0.58 -3.014,-0.58 l 0,2.538 c 0,0 1.832,0.645 3.768,0.645 C 1.768,6.108 3.4,5.463 3.4,2.73 l 0,-8.237 -2.818,0 z" /></g><g
         transform="translate(428.7637,79.7432)"
         id="g472"><path
           inkscape:connector-curvature="0"
           id="path474"
           style="fill:#ffffff;fill-opacity:1;fill-rule:nonzero;stroke:none"
           d="m 0,0 c -0.67,0 -1.293,-0.517 -1.293,-0.517 l 0,-6.128 c 0,0 0.582,-0.152 0.968,-0.152 0.753,0 1.464,0.517 1.464,3.569 C 1.139,-0.323 0.772,0 0,0 m 0.191,-9.247 c -0.707,0 -1.484,0.257 -1.484,0.257 l 0,-4.132 -3.418,0 0,15.488 2.753,0 0.493,-0.774 c 0,0 0.926,0.99 2.432,0.99 1.637,0 3.589,-0.474 3.589,-5.81 0,-5.762 -2.816,-6.019 -4.365,-6.019" /></g><g
         transform="translate(439.4297,79.959)"
         id="g476"><path
           inkscape:connector-curvature="0"
           id="path478"
           style="fill:#ffffff;fill-opacity:1;fill-rule:nonzero;stroke:none"
           d="m 0,0 c -0.988,0 -1.461,-0.603 -1.461,-3.548 0,-2.904 0.625,-3.529 1.461,-3.529 0.818,0 1.467,0.515 1.467,3.529 C 1.467,-0.539 1.057,0 0,0 m 0,-9.463 c -2.558,0 -4.859,1.052 -4.859,5.915 0,4.838 2.301,5.914 4.859,5.914 2.496,0 4.865,-1.034 4.865,-5.914 C 4.865,-8.453 2.52,-9.463 0,-9.463" /></g><g
         transform="translate(450.9199,79.3564)"
         id="g480"><path
           inkscape:connector-curvature="0"
           id="path482"
           style="fill:#ffffff;fill-opacity:1;fill-rule:nonzero;stroke:none"
           d="m 0,0 c -0.926,0 -1.465,-0.516 -1.465,-0.516 l 0,-8.13 -3.419,0 0,11.399 2.732,0 0.474,-1.163 c 0,0 0.451,1.379 1.913,1.379 0.755,0 1.16,-0.216 1.16,-0.216 l 0,-2.99 C 1.395,-0.237 0.752,0 0,0" /></g><g
         transform="translate(457.3086,80.1729)"
         id="g484"><path
           inkscape:connector-curvature="0"
           id="path486"
           style="fill:#ffffff;fill-opacity:1;fill-rule:nonzero;stroke:none"
           d="m 0,0 c -1.033,0 -1.229,-0.881 -1.253,-2.925 l 2.197,0 C 0.944,-1.226 0.924,0 0,0 m 4.17,-4.902 -5.44,0 c 0,-1.873 0.772,-2.131 1.788,-2.131 1.091,0 3.072,0.452 3.072,0.452 l 0,-2.581 c 0,0 -1.485,-0.515 -3.072,-0.515 -2.414,0 -5.186,0.429 -5.186,5.892 0,4.796 2.256,5.937 4.668,5.937 2.878,0 4.301,-1.849 4.193,-6.152 L 4.17,-4.902 Z" /></g></g></g></svg>