<?xml version="1.0" encoding="UTF-8" standalone="no"?>
<!-- Created with Inkscape (http://www.inkscape.org/) -->

<svg
   xmlns:dc="http://purl.org/dc/elements/1.1/"
   xmlns:cc="http://creativecommons.org/ns#"
   xmlns:rdf="http://www.w3.org/1999/02/22-rdf-syntax-ns#"
   xmlns:svg="http://www.w3.org/2000/svg"
   xmlns="http://www.w3.org/2000/svg"
   xmlns:sodipodi="http://sodipodi.sourceforge.net/DTD/sodipodi-0.dtd"
   xmlns:inkscape="http://www.inkscape.org/namespaces/inkscape"
   id="svg2"
   version="1.1"
   inkscape:version="0.91 r13725"
   xml:space="preserve"
   width="238.65875"
   height="246.22375"
   viewBox="0 0 238.65875 246.22374"
   sodipodi:docname="sciencecentre-white.svg"><metadata
     id="metadata8"><rdf:RDF><cc:Work
         rdf:about=""><dc:format>image/svg+xml</dc:format><dc:type
           rdf:resource="http://purl.org/dc/dcmitype/StillImage" /><dc:title></dc:title></cc:Work></rdf:RDF></metadata><defs
     id="defs6"><clipPath
       clipPathUnits="userSpaceOnUse"
       id="clipPath16"><path
         d="m 0,841.89 595.275,0 L 595.275,0 0,0 0,841.89 Z"
         id="path18"
         inkscape:connector-curvature="0" /></clipPath><clipPath
       clipPathUnits="userSpaceOnUse"
       id="clipPath122"><path
         d="m 0,841.89 595.275,0 L 595.275,0 0,0 0,841.89 Z"
         id="path124"
         inkscape:connector-curvature="0" /></clipPath><clipPath
       clipPathUnits="userSpaceOnUse"
       id="clipPath312"><path
         d="m 0,841.89 595.275,0 L 595.275,0 0,0 0,841.89 Z"
         id="path314"
         inkscape:connector-curvature="0" /></clipPath></defs><sodipodi:namedview
     pagecolor="#ffffff"
     bordercolor="#666666"
     borderopacity="1"
     objecttolerance="10"
     gridtolerance="10"
     guidetolerance="10"
     inkscape:pageopacity="0"
     inkscape:pageshadow="2"
     inkscape:window-width="1366"
     inkscape:window-height="742"
     id="namedview4"
     showgrid="false"
     fit-margin-top="0"
     fit-margin-left="0"
     fit-margin-right="0"
     fit-margin-bottom="0"
     inkscape:zoom="1.7940585"
     inkscape:cx="50.78644"
     inkscape:cy="124.13401"
     inkscape:window-x="0"
     inkscape:window-y="0"
     inkscape:window-maximized="1"
     inkscape:current-layer="g10" /><g
     id="g10"
     inkscape:groupmode="layer"
     inkscape:label="SCS logo_new branding (Nov 2015)"
     transform="matrix(1.25,0,0,-1.25,-946.4337,717.14727)"><g
       id="g3903"
       transform="translate(554.973,-171.85376)"><g
         transform="translate(293.1621,653.873)"
         id="g20"><path
           inkscape:connector-curvature="0"
           id="path22"
           style="fill:#f04c22;fill-opacity:1;fill-rule:nonzero;stroke:none"
           d="m 0,0 c 6.809,-15.783 17.958,-34.581 17.958,-34.581 -0.203,-0.171 -18.505,18.539 -26.588,29.552 -2.917,3.98 -8.782,2.357 -6.828,-3.449 5.413,-16.189 13.248,-31.121 25.076,-42.191 4.628,-4.349 6.794,-3.964 10.247,-2.508 2.042,0.868 -0.627,1.427 -3.066,3.827 -6.717,6.632 -11.508,12.574 -14.892,20.246 5.127,-6.251 12.49,-13.494 18.96,-17.828 2.137,-1.422 6.771,-4.331 9.421,-3.095 3.448,1.609 2.921,4.56 0.285,9.185 C 18.962,-20.38 13.649,-8.738 8.25,2.059 5.611,7.314 -1.648,3.804 0,0" /></g><g
         transform="translate(306.6455,662.7109)"
         id="g24"><path
           inkscape:connector-curvature="0"
           id="path26"
           style="fill:#f04c22;fill-opacity:1;fill-rule:nonzero;stroke:none"
           d="m 0,0 c -2.013,-1.191 -3.868,-3.376 -2.435,-6.295 1.431,-2.913 2.377,-6.043 6.496,-4.182 4.122,1.859 3.576,2.272 4.549,-0.425 4.906,-12.052 9.302,-25.366 13.053,-36.914 0.609,-2.444 1.873,-7.911 3.64,-7.607 1.655,0.277 4.493,2.249 5.116,3.478 1.563,4.226 -7.937,28.487 -10.881,36.269 -1.403,4.703 -5.138,9.969 -2.719,12.002 2.102,1.752 4.042,2.532 3.698,5.23 C 18.704,9.673 14.915,6.786 12.95,5.871 11.552,5.157 1.427,0.832 0,0" /></g><g
         transform="translate(296.2041,604.2432)"
         id="g28"><path
           inkscape:connector-curvature="0"
           id="path30"
           style="fill:#f04c22;fill-opacity:1;fill-rule:nonzero;stroke:none"
           d="m 0,0 c -2.868,0.562 -4.049,-1.422 -7.993,0.346 -3.969,1.758 -4.985,3.851 -6.391,6.868 0.223,3.356 7.295,1.14 5.078,6.018 -1.59,2.866 -2.871,4.808 -6.224,4.397 -4.025,-0.831 -5.199,-2.14 -7.195,-0.19 -2.012,1.947 -4.436,6.233 -5.995,9.58 -0.653,1.739 -1.33,3.676 1.668,4.485 1.98,0.525 4.682,1.35 4.147,3.859 -0.324,1.553 -1.262,4.231 -2.537,5.38 -1.508,1.349 -4.12,0.04 -5.439,-0.692 -0.795,-0.434 -2.291,-1.256 -3.073,-1.751 -6.015,-3.516 -3.379,-11.153 -0.441,-15.741 5.881,-9.272 15.336,-20.885 20.659,-25.328 5.333,-4.438 11.037,-5.556 16.819,-3.903 1.731,0.571 2.021,1.206 1.826,2.584 C 4.764,-2.987 1.866,-0.354 0,0" /></g><g
         transform="translate(272.1914,605.124)"
         id="g32"><path
           inkscape:connector-curvature="0"
           id="path34"
           style="fill:#f04c22;fill-opacity:1;fill-rule:nonzero;stroke:none"
           d="m 0,0 c -7.922,2.833 -15.656,8.82 -20.551,16.804 -1.128,1.838 -2.7,5.831 0.039,5.648 2.385,-0.158 3.116,-0.685 4.278,0.628 1.486,1.632 1.77,4.058 -0.134,5.755 -2.642,2.378 -7.203,3.124 -11.532,1.09 -4.315,-2.019 -2.817,-8.99 0.957,-15.008 C -19.701,3.336 -11.739,-1.066 -5.315,-4.143 -2.077,-5.677 5.188,-8.631 5.934,-6.559 6.896,-3.899 5.723,-1.664 0,0" /></g><g
         transform="translate(357.4854,687.7646)"
         id="g36"><path
           inkscape:connector-curvature="0"
           id="path38"
           style="fill:#f04c22;fill-opacity:1;fill-rule:nonzero;stroke:none"
           d="m 0,0 c -2.523,-1.773 -8.427,-5.009 -9.425,-7.232 -0.987,-2.225 8.523,-27.453 9.098,-42.671 0.425,-2.405 1.921,-1.792 2.784,-1.228 2.118,1.405 4.439,8.96 5.269,14.022 0.183,1.151 0.486,2.703 0.57,3.479 0.267,2.315 -0.585,3.724 -1.338,3.457 -1.251,-0.45 -3.219,-5.498 -3.411,-4.657 -0.425,1.936 -1.413,6.1 -1.574,7.715 -0.284,2.69 4.013,3.736 4.545,6.402 0.825,4.223 -0.345,6.934 -2.408,5.636 -1.682,-1.042 -3.87,-3.45 -4.386,-3.324 -0.722,0.732 -1.811,5.768 -1.782,6.687 -0.543,3.848 4.264,3.273 5.061,6.255 C 3.437,-4.062 2.397,1.702 0,0" /></g><g
         transform="translate(344.4199,656.3716)"
         id="g40"><path
           inkscape:connector-curvature="0"
           id="path42"
           style="fill:#f04c22;fill-opacity:1;fill-rule:nonzero;stroke:none"
           d="m 0,0 c 0.447,-2.749 -0.531,-4.833 -0.531,-4.833 0,0 -1.156,-3.295 -1.844,-1.756 -0.947,4.274 -2.06,8.004 -4.369,14.631 -0.588,2.917 0.692,3.327 2.191,3.329 C -2.188,11.355 -0.572,3.491 0,0 m -6.441,21.086 c -2.853,-1.069 -5.686,-2.331 -7.035,-3.252 -1.358,-0.944 -3.989,-2.657 -1.661,-8.387 6.289,-18.346 13.032,-44.991 13.52,-50.277 0.199,-2.154 2.991,0.734 4.26,2.008 1.253,1.272 2.067,2.048 1.782,3.695 -0.72,4.121 -1.962,8.972 -3.654,14.017 0,0 -0.846,2.907 0.529,1.541 3.093,-4.351 4.974,-9.106 6.229,-13.423 0,0 0.352,-0.756 1.084,0.311 1.057,0.961 3.131,5.406 3.131,5.406 0,0 0.901,2.571 0.147,3.766 -2.212,4.362 -5.196,8.61 -9.077,12.349 0,0 2.638,4.007 2.746,10.858 0.076,4.187 -1.419,9.289 -2.619,13.749 -0.896,3.326 -4.496,9.885 -9.382,7.639" /></g><g
         transform="translate(287.4531,660.7017)"
         id="g44"><path
           inkscape:connector-curvature="0"
           id="path46"
           style="fill:#f04c22;fill-opacity:1;fill-rule:nonzero;stroke:none"
           d="m 0,0 c 3.788,-0.814 7.421,2.904 8.424,6.645 0.656,5.5 -2.406,7.243 -6.838,5.387 -4.232,-1.766 -10.686,11.239 -11.638,14.117 -1.219,3.599 -1.874,5.531 0.204,7.209 3.467,2.493 5.087,3.636 2.977,7.349 -1.234,1.684 -3.7,0.762 -5.307,0.055 -3.685,-1.621 -3.646,4.246 -4.04,7.463 -0.397,3.248 0.588,5.383 1.571,6.418 0.876,0.952 0.229,6.54 -1.878,5.557 -2.515,-0.889 -4.132,-2.969 -5.016,-5.636 -1.456,-4.773 -0.939,-12.974 0.602,-18.847 2.825,-9.745 4.422,-15.419 10.681,-26.067 1.48,-2.294 2.88,-4.408 4.936,-6.349 C -3.636,1.703 -2.214,0.411 0,0" /></g><g
         transform="translate(237.8916,688.7588)"
         id="g48"><path
           inkscape:connector-curvature="0"
           id="path50"
           style="fill:#f04c22;fill-opacity:1;fill-rule:nonzero;stroke:none"
           d="m 0,0 c -1.679,-0.092 -3.376,-1.963 -4.374,-3.116 -1.131,-1.329 -2.94,-4.832 -3.418,-7.025 -1.257,-5.732 -1.301,-10.346 5.348,-20.174 1.4,-2.066 4.965,-6.226 5.651,-7.172 2.795,-3.85 1.541,-6.506 -1.144,-5.403 -1.344,0.543 -2.347,2.503 -2.836,3.087 -1.28,1.469 -4.339,0.043 -2.664,-3.639 1.495,-4.477 5.875,-6.962 10.048,-6.581 4.156,0.374 10.101,5.851 3.559,15.382 -2.451,3.558 -5.839,6.548 -8.993,10.979 -3.203,4.508 -4.684,8.289 -3.147,13.135 0.808,2.539 1.81,3.117 3.078,3.523 1.083,0.371 1.342,2.147 1.357,2.779 C 2.482,-1.819 1.441,0.075 0,0" /></g><g
         transform="translate(249.1973,704.5088)"
         id="g52"><path
           inkscape:connector-curvature="0"
           id="path54"
           style="fill:#f04c22;fill-opacity:1;fill-rule:nonzero;stroke:none"
           d="m 0,0 c -10.242,-5.387 -8.328,-27.12 -2.134,-42.742 2.773,-7.023 9.906,-18.3 17.447,-13.347 3.773,2.483 4.055,6.193 2.255,9.273 -2.297,3.934 -5.277,2.393 -6.454,0.977 -0.722,-0.881 -2.497,-0.768 -4.213,1.455 -6.282,8.191 -7.337,19.873 -7.639,26.892 -0.297,6.684 1.953,6.818 2.469,9.559 C 4.263,-1.972 2.011,1.042 0,0" /></g><g
         transform="translate(290.3857,704.3179)"
         id="g56"><path
           inkscape:connector-curvature="0"
           id="path58"
           style="fill:#f04c22;fill-opacity:1;fill-rule:nonzero;stroke:none"
           d="m 0,0 c 0.142,0.128 15.247,-15.817 25.058,-26.094 6.3,-6.624 11.084,-0.86 9.057,3.485 C 27.497,-8.415 12.243,15.846 3.36,21.468 1.499,22.657 -2.576,22.871 -3.827,21.828 -4.737,21.07 -4.226,20.017 -3.032,19 5.498,9.78 13.71,-2.814 13.71,-2.814 c -0.041,-0.02 -17.124,16.339 -26.039,21.219 -1.959,1.069 -4.42,-0.85 -3.576,-2.502 11.824,-22.814 17.419,-35.475 21.271,-45.025 1.651,-4.072 3.698,-8.526 6.868,-8.214 2.398,0.225 5.082,3.244 2.612,8.537 C 4.826,-7.306 0,0 0,0" /></g><g
         transform="translate(338.1924,694.6948)"
         id="g60"><path
           inkscape:connector-curvature="0"
           id="path62"
           style="fill:#f04c22;fill-opacity:1;fill-rule:nonzero;stroke:none"
           d="m 0,0 c -3.422,1.136 -3.632,-5.555 -8.09,0.64 -3.521,4.875 -5.926,8.364 -15.771,22.963 -3.763,5.569 1.942,0.69 2.96,0.958 1.894,0.491 -0.54,7.14 -4.26,7.982 -13.813,3.117 -12.387,-0.747 -7.342,-7.648 14.924,-20.397 19.943,-35.385 26.278,-38.131 3.384,-1.484 7.43,1.655 8.492,3.959 C 3.853,-5.911 2.799,-0.929 0,0" /></g><g
         transform="translate(354.6055,696.6655)"
         id="g64"><path
           inkscape:connector-curvature="0"
           id="path66"
           style="fill:#f04c22;fill-opacity:1;fill-rule:nonzero;stroke:none"
           d="m 0,0 c -1.713,2.022 -3.953,-1.169 -4.751,-1.258 -1.091,-0.124 -1.218,-0.977 -3.904,3.208 -3.288,5.148 -4.542,5.419 -4.638,6.293 -0.256,2.294 6.167,1.543 3.406,4.905 -3.716,4.525 -4.425,-1.374 -10.719,4.076 -1.466,1.279 -3.783,4.07 -3.649,4.932 0.13,0.868 3.939,-1.042 4.695,-0.25 0.351,0.386 0.325,1.651 -0.86,2.475 -2.481,1.725 -6.399,3.296 -9.925,4.594 -4.03,1.479 -6.367,-0.91 -3.832,-4.31 6.741,-8.976 15.757,-15.203 25.009,-34.011 1.965,-3.997 8.025,1.867 9.015,2.627 C 2.103,-4.98 1.271,-1.493 0,0" /></g><g
         transform="translate(262.2754,709.7314)"
         id="g68"><path
           inkscape:connector-curvature="0"
           id="path70"
           style="fill:#f04c22;fill-opacity:1;fill-rule:nonzero;stroke:none"
           d="m 0,0 c 0.101,4.055 -1.754,4.586 -2.816,4.3 -1.687,-0.459 -3.215,-3.086 -3.705,-4.315 -4.849,-12.217 4.423,-33.171 10.959,-47.77 1.558,-3.097 3.886,-8.333 7.687,-8.125 4.049,0.22 5.426,3.405 3.505,6.71 C 11.801,-42.933 -1.956,-17.725 0,0" /></g><g
         transform="translate(258.8506,569.9668)"
         id="g72"><path
           inkscape:connector-curvature="0"
           id="path74"
           style="fill:#f04c22;fill-opacity:1;fill-rule:nonzero;stroke:none"
           d="m 0,0 c -1.464,0 -2.858,0.494 -2.858,0.494 l 0,2.602 c 0,0 1.784,-0.493 2.43,-0.493 0.796,0 1.271,0.234 1.271,0.965 0,0.624 -0.457,0.841 -1.015,1.12 L -0.817,5.01 c -0.816,0.408 -2.172,1.161 -2.172,3.205 0,2.797 2.087,3.614 4.045,3.614 1.506,0 2.666,-0.516 2.666,-0.516 l 0,-2.495 c 0,0 -1.271,0.45 -2.387,0.45 -0.623,0 -1.032,-0.28 -1.032,-0.837 0,-0.667 0.516,-0.819 1.116,-1.142 L 2.065,6.944 C 2.971,6.474 4.152,5.721 4.152,3.741 4.152,0.535 1.87,0 0,0" /></g><path
         inkscape:connector-curvature="0"
         id="path76"
         style="fill:#f04c22;fill-opacity:1;fill-rule:nonzero;stroke:none"
         d="m 264.635,581.58 3.422,0 0,-11.399 -3.422,0 0,11.399 z m 1.701,1.507 c -1.013,0 -1.784,0.838 -1.784,1.827 0,0.988 0.771,1.806 1.784,1.806 1.012,0 1.81,-0.818 1.81,-1.806 0,-0.989 -0.798,-1.827 -1.81,-1.827" /><g
         transform="translate(276.0361,570.1807)"
         id="g78"><path
           inkscape:connector-curvature="0"
           id="path80"
           style="fill:#f04c22;fill-opacity:1;fill-rule:nonzero;stroke:none"
           d="M 0,0 0,7.786 C 0,8.475 -0.129,8.688 -0.711,8.688 -1.44,8.688 -2.39,8.173 -2.39,8.173 l 0,-8.173 -3.422,0 0,11.399 2.712,0 0.645,-0.902 c 0,0 1.251,1.118 3.032,1.118 1.851,0 2.841,-0.968 2.841,-3.078 L 3.418,0 0,0 Z" /></g><g
         transform="translate(285.584,579.8369)"
         id="g82"><path
           inkscape:connector-curvature="0"
           id="path84"
           style="fill:#f04c22;fill-opacity:1;fill-rule:nonzero;stroke:none"
           d="m 0,0 c -0.643,0 -1.01,-0.322 -1.01,-1.912 0,-1.85 0.26,-2.174 1.01,-2.174 0.818,0 1.012,0.345 1.012,2.174 C 1.012,-0.277 0.732,0 0,0 m 0.711,-9.656 -1.74,0.173 c -0.236,-0.41 -0.432,-0.905 -0.432,-1.357 0,-0.858 0.559,-1.162 1.312,-1.162 1.292,0 2.087,0.237 2.087,1.29 0,0.842 -0.494,0.991 -1.227,1.056 m 3.142,9.249 C 4.176,-0.902 4.39,-1.505 4.39,-2.042 4.39,-5.269 2.496,-6.043 0,-6.043 c -0.666,0 -1.312,0.128 -1.312,0.128 0,0 -0.237,-0.276 -0.237,-0.516 0,-0.408 0.261,-0.557 0.842,-0.602 l 2.496,-0.215 c 2.194,-0.192 3.506,-0.731 3.506,-3.14 0,-2.797 -1.873,-3.615 -5.551,-3.615 -2.818,0 -4.517,0.516 -4.517,2.668 0,1.054 0.73,1.914 1.46,2.388 -0.644,0.368 -1.03,0.946 -1.03,1.828 0,0.948 0.71,1.613 1.353,1.957 -0.815,0.646 -1.397,1.635 -1.397,3.25 0,3.098 2.131,3.871 4.387,3.871 0.754,0 1.249,-0.216 1.789,-0.216 l 3.72,0 0,-2.193 -1.656,0.043 z" /></g><g
         transform="translate(296.5977,575.6875)"
         id="g86"><path
           inkscape:connector-curvature="0"
           id="path88"
           style="fill:#f04c22;fill-opacity:1;fill-rule:nonzero;stroke:none"
           d="m 0,0 -0.688,-0.021 c -0.882,-0.023 -1.181,-0.411 -1.181,-1.873 0,-1.224 0.344,-1.548 0.879,-1.548 0.516,0 0.99,0.343 0.99,0.343 L 0,0 Z m 0.582,-5.507 -0.516,0.861 c 0,0 -0.754,-1.075 -2.153,-1.075 -1.245,0 -3.14,0.364 -3.14,3.679 0,3.438 2.668,3.85 4.108,3.85 l 1.119,0 0,0.773 c 0,0.622 -0.259,0.924 -1.204,0.924 -1.096,0 -3.013,-0.58 -3.013,-0.58 l 0,2.538 c 0,0 1.831,0.645 3.767,0.645 2.217,0 3.849,-0.645 3.849,-3.378 l 0,-8.237 -2.817,0 z" /></g><g
         transform="translate(306.9248,579.2139)"
         id="g90"><path
           inkscape:connector-curvature="0"
           id="path92"
           style="fill:#f04c22;fill-opacity:1;fill-rule:nonzero;stroke:none"
           d="m 0,0 c -0.669,0 -1.292,-0.517 -1.292,-0.517 l 0,-6.128 c 0,0 0.581,-0.152 0.968,-0.152 0.753,0 1.464,0.517 1.464,3.569 C 1.14,-0.323 0.773,0 0,0 m 0.192,-9.247 c -0.707,0 -1.484,0.257 -1.484,0.257 l 0,-4.132 -3.418,0 0,15.488 2.753,0 0.493,-0.774 c 0,0 0.926,0.99 2.432,0.99 1.636,0 3.59,-0.474 3.59,-5.81 0,-5.762 -2.817,-6.019 -4.366,-6.019" /></g><g
         transform="translate(317.5918,579.4297)"
         id="g94"><path
           inkscape:connector-curvature="0"
           id="path96"
           style="fill:#f04c22;fill-opacity:1;fill-rule:nonzero;stroke:none"
           d="m 0,0 c -0.989,0 -1.461,-0.603 -1.461,-3.548 0,-2.904 0.624,-3.529 1.461,-3.529 0.818,0 1.466,0.515 1.466,3.529 C 1.466,-0.539 1.056,0 0,0 m 0,-9.463 c -2.557,0 -4.859,1.052 -4.859,5.915 0,4.838 2.302,5.914 4.859,5.914 2.496,0 4.864,-1.034 4.864,-5.914 C 4.864,-8.453 2.52,-9.463 0,-9.463" /></g><g
         transform="translate(329.0811,578.8271)"
         id="g98"><path
           inkscape:connector-curvature="0"
           id="path100"
           style="fill:#f04c22;fill-opacity:1;fill-rule:nonzero;stroke:none"
           d="m 0,0 c -0.926,0 -1.464,-0.516 -1.464,-0.516 l 0,-8.13 -3.419,0 0,11.399 2.731,0 0.474,-1.163 c 0,0 0.451,1.379 1.915,1.379 0.753,0 1.159,-0.216 1.159,-0.216 l 0,-2.99 C 1.396,-0.237 0.753,0 0,0" /></g><g
         transform="translate(335.4707,579.6436)"
         id="g102"><path
           inkscape:connector-curvature="0"
           id="path104"
           style="fill:#f04c22;fill-opacity:1;fill-rule:nonzero;stroke:none"
           d="m 0,0 c -1.033,0 -1.229,-0.881 -1.252,-2.925 l 2.196,0 C 0.944,-1.226 0.924,0 0,0 m 4.17,-4.902 -5.441,0 c 0,-1.873 0.773,-2.131 1.788,-2.131 1.092,0 3.072,0.452 3.072,0.452 l 0,-2.581 c 0,0 -1.484,-0.515 -3.072,-0.515 -2.413,0 -5.186,0.429 -5.186,5.892 0,4.796 2.257,5.937 4.669,5.937 2.879,0 4.301,-1.849 4.193,-6.152 L 4.17,-4.902 Z" /></g></g></g></svg>