<svg xmlns="http://www.w3.org/2000/svg" xmlns:xlink="http://www.w3.org/1999/xlink" viewBox="0 0 612 792"><defs><style>.cls-1{fill:red;}.cls-2{fill:url(#linear-gradient);}.cls-3{fill:url(#radial-gradient);}.cls-4,.cls-7{opacity:0.85;}.cls-4{fill:url(#New_Gradient_Swatch_7);}.cls-5{fill:url(#linear-gradient-2);}.cls-6{fill:url(#radial-gradient-2);}.cls-7{fill:url(#New_Gradient_Swatch_5);}</style><linearGradient id="linear-gradient" x1="144.26" y1="247.5" x2="242.28" y2="315.52" gradientUnits="userSpaceOnUse"><stop offset="0" stop-color="#c2c2c2"/><stop offset="1" stop-color="#151515"/></linearGradient><radialGradient id="radial-gradient" cx="176.38" cy="191.96" r="355.06" gradientUnits="userSpaceOnUse"><stop offset="0" stop-color="#999"/><stop offset="0.32" stop-color="#979797"/><stop offset="0.49" stop-color="#8f8f8f"/><stop offset="0.63" stop-color="#818181"/><stop offset="0.76" stop-color="#6d6d6d"/><stop offset="0.87" stop-color="#545454"/><stop offset="0.97" stop-color="#353535"/><stop offset="1" stop-color="#292929"/></radialGradient><linearGradient id="New_Gradient_Swatch_7" x1="196.98" y1="114.46" x2="196.98" y2="347.07" gradientUnits="userSpaceOnUse"><stop offset="0" stop-color="#fff"/><stop offset="1" stop-color="#999"/></linearGradient><linearGradient id="linear-gradient-2" x1="285.5" y1="277.87" x2="467.51" y2="405.88" gradientUnits="userSpaceOnUse"><stop offset="0.01" stop-color="#ff9d88"/><stop offset="1" stop-color="#350000"/></linearGradient><radialGradient id="radial-gradient-2" cx="168.38" cy="123.96" r="501.29" gradientUnits="userSpaceOnUse"><stop offset="0" stop-color="red"/><stop offset="0.42" stop-color="#fd0000"/><stop offset="0.58" stop-color="#f60000"/><stop offset="0.68" stop-color="#eb0000"/><stop offset="0.77" stop-color="#da0000"/><stop offset="0.85" stop-color="#c40000"/><stop offset="0.91" stop-color="#a80000"/><stop offset="0.97" stop-color="#890000"/><stop offset="1" stop-color="#700"/></radialGradient><linearGradient id="New_Gradient_Swatch_5" x1="408.18" y1="116.75" x2="408.18" y2="351.16" gradientUnits="userSpaceOnUse"><stop offset="0" stop-color="#fff"/><stop offset="1" stop-color="red"/></linearGradient></defs><title>Zeichenfläche 2</title><path d="M92.84,656.08c-3.75-4.5-5.46-6.19-9.75-8.87a25,25,0,0,0-14.37-3.87c-7.8,0-13,2.25-18.5,7.62-5.79,5.66-8.37,12.08-8.37,20.87S44.14,687,50,692.58s11.16,7.69,19.19,7.69c5.88,0,9.94-1.13,14.44-4.06S91,690.83,93.46,687v17s-1.16.92-1.76,1.36a37.06,37.06,0,0,1-22.26,6.8c-11,0-21.42-3.52-28.73-11a40.31,40.31,0,0,1-11.94-28.75c0-11.34,5.35-21.48,13-29.36a37.48,37.48,0,0,1,27.95-11.82A36.24,36.24,0,0,1,91.46,638c.47.34,1.39,1.05,1.39,1.05Z"/><path d="M124.45,710H111.76V633.56h12.83v8c3.15-3.41,7-7.66,10.75-9.25s10.75-1.5,18.12,2.38l-6.25,11.62c-7.12-5.87-13.39-2.76-16.87.38s-5.5,9.75-5.89,17.05Z"/><path d="M237.15,674.65H176.59c.56,8.36,2,12.53,7,17.71s10.51,7.72,18.09,7.72c5.37,0,9.21-.36,13.5-3.37a28.27,28.27,0,0,0,10.25-12.12l10.5,6c-3.87,7.75-8.17,11.3-14.12,15.87s-13.74,5.64-21.57,5.64c-10.38,0-19.38-3.34-26.56-11.27s-10.56-18.09-10.56-29.24q0-17.45,10.56-28.91t27-11.46q16.11,0,26.28,11.86t10.17,30.83Zm-13.94-11.28c-1-4.42-2-9.22-6.67-13.5s-8.38-6.67-15.83-6.67c-6.94,0-11.72,1.89-16.17,6.83s-5.67,7.17-7.33,13.5Z"/><path class="cls-1" d="M313.71,645V563l12.72.25V710H313.27l.22-11.17c-3.36,4.33-5.55,6-10.43,9.32-4.57,3.11-10.18,4.12-15.76,4.12-10.79,0-18.94-3.38-26.33-11.17S250.1,683.06,250.1,671.7s3.56-21.55,10.86-29.25,13.94-11.08,24.92-11.08a35.78,35.78,0,0,1,18.25,5.08C308,638.87,309.88,640.81,313.71,645Zm.58,27.67c0-8.77-2-15.52-7.69-21.7s-11.89-7.47-18.56-7.64c-7.9-.2-13.17,2.83-17.6,7.64s-7.48,13.36-7.54,20.19c-.08,9,1.89,15.41,7.54,21.52s12.85,7.66,18.69,7.57c5.5-.08,14.17-2.42,18.58-8C312.39,686.29,314.3,677.87,314.3,672.62Z"/><path d="M405.71,699.33a35,35,0,0,1-9,8.13,26.37,26.37,0,0,1-15.51,4.64c-10.88,0-20.25-3.1-27.49-10.77s-11.12-17.81-11.12-29.12a40.69,40.69,0,0,1,11.68-28.89c7.39-7.71,13.76-12,24.86-11.94,8.42.08,14.67,2.83,17.5,4.92s6,4,9.33,7.83l.08-10.56h12.8V710H405.71Zm.75-27.79c0-8.14-1.13-14.1-6.75-20.17s-11.25-8.08-18.58-8.08c-8,0-12.56,1.86-18.17,7.92s-7.17,10.58-7.17,19.58c0,8.53,1.92,15.94,7.5,21.83s10.75,7.67,18.58,7.67a22.93,22.93,0,0,0,17.83-8.08C405.32,686,406.46,680.31,406.46,671.54Z"/><path d="M442.94,710V645.21l-8.73-.17L434,633.56h8.9V606l12.56-.33v27.86h13.37v11.81l-13.37.17V710Z"/><path d="M552.3,715.28l-37.08-81.72,14.35.18,22.74,50.94,23.25-51.11h13.84Z"/><rect x="484.91" y="633.56" width="13.08" height="76.46"/><circle cx="491.21" cy="604.21" r="9.37"/><path class="cls-2" d="M241.22,303.3c0-16.35,7.59-30.2,19-41a72.67,72.67,0,0,1,41.64-19.45l0-2.55s-1.33-57.67-1.33-79.67c0-15.69-1.36-58.87-2.13-82.33h-1.53c-66.22,0-125.4,23.71-172.67,59C63.86,182.36,23.88,247.87,23.88,324c0,77.95,43.48,146.27,107,190.42a308.08,308.08,0,0,0,82.91,41.21c25.89,8.24,52.44,13.87,81.88,14,.33-15.67,1.34-59.38,3.21-100.32,2.33-51,2-104.33,2-104.33v-.54C266.38,360.48,241.22,334.93,241.22,303.3Z"/><path class="cls-3" d="M130.2,145.31h0C68.09,191.68,33.88,255.13,33.88,324c0,70.43,37.44,136.84,102.71,182.21a296.09,296.09,0,0,0,80.23,39.89c24.94,7.93,47.15,12.22,69.07,13.29.48-20.52,1.44-56.35,3-90.5,1.78-38.83,2-79.4,2-96-35.06-7.65-59.68-35.69-59.68-69.54,0-17.87,7.65-34.56,22.12-48.26a82.19,82.19,0,0,1,38.41-20.52c-.34-15.38-1.2-56.23-1.2-73.89,0-13.55-1-47.76-1.81-72.16C232.51,90.19,177.86,109.73,130.2,145.31Z"/><path class="cls-4" d="M112.38,234c0,52.2,51.11,96.61,122.47,113.12a77.26,77.26,0,0,1-13.63-43.78c0-20.69,8.73-39.89,25.25-55.52A92.54,92.54,0,0,1,281.58,227c-.41-19-1-51.05-1-66.37,0-9-.46-27.35-1-46.17C185.81,120,112.38,171.39,112.38,234Z"/><path class="cls-5" d="M380.83,365.53c-.48-7.55-1.84-31.41-2-63.06-.21-33.65.13-55.32.22-60.31,17.54,1.7,30.21,8.93,41.29,19.53,11.34,10.85,18.18,24.08,20.24,40.94C444.6,335.81,414.44,363.92,380.83,365.53Zm132.38-187.9A282.88,282.88,0,0,0,316.6,78.93l-1.2-.07C316,113,317.66,223.15,316.55,305c-1.17,85.64-2.33,229.3-2.61,264.19,66-9.21,122.29-36.53,167.61-73.86,22.47-18.51,40.33-40.08,54.83-63.17,19.94-31.75,32.5-67.1,32.5-107.83C568.88,268.26,548.32,219,513.21,177.63Z"/><path class="cls-6" d="M326.92,243c0,21.4-.11,42.6-.37,62.14h0c-1.06,77.63-2.1,201.29-2.51,252.34,55.87-9.76,106.67-33.23,151.16-69.86,20.29-16.71,37.53-36.58,52.72-60.77,20.84-33.18,31-66.71,31-102.51,0-51.39-17.93-98.55-53.29-140.19a273,273,0,0,0-180-94.33C326.08,120.7,326.92,182.63,326.92,243Zm43.93,123.21c-.55-8.68-1.86-32.26-2.06-63.63-.21-33.33.12-54.78.23-60.56l.2-10.81,10.76,1c18.2,1.76,33.21,8.83,47.24,22.26,13.35,12.77,21,28.13,23.25,47,2.06,16.83-3.19,33.66-14.76,47.39a77.1,77.1,0,0,1-54.4,26.71l-9.83.47Z"/><path class="cls-7" d="M336,116.75c.45,33.52.94,80.22.94,126.2,0,23.12-.13,44.07-.37,62.28-.19,14-.38,29.58-.57,45.93,8.17-1.17,16.13-2.68,23.86-4.53-.48-11.48-.93-26.56-1-44-.21-33.44.12-55,.23-60.8l.4-21.62,21.53,2.08c20.55,2,37.46,9.93,53.19,25a83.7,83.7,0,0,1,24.58,43.25c13.82-16.85,21.67-36.09,21.67-56.53C480.38,176.55,418.57,128.57,336,116.75Z"/></svg>