<?xml version="1.0" encoding="UTF-8" standalone="no"?>
<svg width="912px" height="271px" viewBox="0 0 912 271" version="1.1" xmlns="http://www.w3.org/2000/svg" xmlns:xlink="http://www.w3.org/1999/xlink">
    <!-- Generator: Sketch 39.1 (31720) - http://www.bohemiancoding.com/sketch -->
    <title>googlecloud</title>
    <desc>Created with Sketch.</desc>
    <defs></defs>
    <g id="Page-1" stroke="none" stroke-width="1" fill="none" fill-rule="evenodd">
        <g id="googlecloud">
            <g id="Page-1" transform="translate(70.000000, 80.000000)">
                <g id="Group-8" transform="translate(444.000000, 8.000000)" fill="#757575">
                    <path d="M0.6328,48.1738 C0.6328,20.9088 21.2408,0.2998 48.2498,0.2998 C62.0748,0.2998 73.7238,5.8038 81.9158,15.2768 L73.7238,23.2128 C67.3228,15.2768 58.7468,11.5648 48.2498,11.5648 C28.9218,11.5648 12.6648,25.6448 12.6648,48.1738 C12.6648,70.7028 28.9218,84.7838 48.2498,84.7838 C59.7718,84.7838 69.4998,79.4068 76.4118,71.4708 L84.6038,79.6628 C76.5398,89.2638 63.6118,96.0478 48.2498,96.0478 C21.2408,96.0478 0.6328,75.4388 0.6328,48.1738 L0.6328,48.1738 Z" id="Fill-1"></path>
                    <polygon id="Fill-3" points="93.815 94 105.591 94 105.591 2.348 93.815 2.348"></polygon>
                    <path d="M167.1611,62.6387 C167.1611,48.3017 157.1771,39.9817 146.6801,39.9817 C136.1831,39.9817 126.1991,48.3017 126.1991,62.6387 C126.1991,76.9747 136.1831,85.2957 146.6801,85.2957 C157.1771,85.2957 167.1611,76.9747 167.1611,62.6387 M178.9371,62.6387 C178.9371,81.7117 165.4971,96.0477 146.6801,96.0477 C127.8631,96.0477 114.4221,81.7117 114.4221,62.6387 C114.4221,43.5657 127.8631,29.2287 146.6801,29.2287 C165.4971,29.2287 178.9371,43.5657 178.9371,62.6387" id="Fill-5"></path>
                    <path d="M232.1846,94 L232.1846,85.296 L231.6726,85.296 C228.2166,91.056 220.4086,96.048 211.8316,96.048 C195.7036,96.048 187.8946,85.167 187.8946,69.679 L187.8946,31.277 L199.6706,31.277 L199.6706,67.759 C199.6706,80.815 206.1996,85.296 215.1606,85.296 C225.4006,85.296 231.6726,75.439 231.6726,65.839 L231.6726,31.277 L243.4496,31.277 L243.4496,94 L232.1846,94 Z" id="Fill-6"></path>
                    <path d="M304.6318,62.6387 C304.6318,48.3017 295.1588,39.9817 284.6618,39.9817 C274.1658,39.9817 264.6938,48.5577 264.6938,62.6387 C264.6938,76.7197 274.1658,85.2957 284.6618,85.2957 C295.1588,85.2957 304.6318,76.9747 304.6318,62.6387 M252.9168,62.6387 C252.9168,43.4377 266.8688,29.2287 282.7418,29.2287 C292.7268,29.2287 300.5348,34.2217 304.1188,39.9817 L304.6318,39.9817 L304.1188,31.2777 L304.1188,2.3477 L315.8968,2.3477 L315.8968,93.9997 L304.6318,93.9997 L304.6318,85.2957 L304.1188,85.2957 C300.5348,91.0557 292.7268,96.0477 282.7418,96.0477 C266.8688,96.0477 252.9168,81.8397 252.9168,62.6387" id="Fill-7"></path>
                </g>
                <g id="Group-20" transform="translate(208.000000, 68.000000) scale(1, -1) translate(-208.000000, -68.000000) ">
                    <path d="M0.7233,83.4346 C0.7233,112.3636 25.0443,135.9166 53.9743,135.9166 C69.9753,135.9166 81.3683,129.6446 89.9443,121.4526 L79.8313,111.3396 C73.6873,117.1006 65.3673,121.5806 53.9743,121.5806 C32.8533,121.5806 16.3403,104.5556 16.3403,83.4346 C16.3403,62.3136 32.8533,45.2886 53.9743,45.2886 C67.6703,45.2886 75.4793,50.7926 80.4713,55.7856 C84.5683,59.8816 87.2553,65.7696 88.2803,73.8336 L53.9743,73.8336 L53.9743,88.1706 L102.2323,88.1706 C102.7443,85.6106 103.0003,82.5386 103.0003,79.2096 C103.0003,68.4576 100.0563,55.1446 90.5833,45.6726 C81.3683,36.0726 69.5903,30.9526 53.9743,30.9526 C25.0443,30.9526 0.7233,54.5046 0.7233,83.4346 L0.7233,83.4346 Z" id="Fill-9" fill="#4285F4"></path>
                    <path d="M142.0012,44.2646 C131.7602,44.2646 122.9282,52.7126 122.9282,64.7456 C122.9282,76.9066 131.7602,85.2266 142.0012,85.2266 C152.2412,85.2266 161.0732,76.9066 161.0732,64.7456 C161.0732,52.7126 152.2412,44.2646 142.0012,44.2646 M142.0012,98.5386 C123.3122,98.5386 108.0792,84.3306 108.0792,64.7456 C108.0792,45.2886 123.3122,30.9516 142.0012,30.9516 C160.6892,30.9516 175.9222,45.2886 175.9222,64.7456 C175.9222,84.3306 160.6892,98.5386 142.0012,98.5386" id="Fill-11" fill="#EB4335"></path>
                    <path d="M216.0007,44.2646 C205.7607,44.2646 196.9277,52.7126 196.9277,64.7456 C196.9277,76.9066 205.7607,85.2266 216.0007,85.2266 C226.2407,85.2266 235.0727,76.9066 235.0727,64.7456 C235.0727,52.7126 226.2407,44.2646 216.0007,44.2646 M216.0007,98.5386 C197.3117,98.5386 182.0787,84.3306 182.0787,64.7456 C182.0787,45.2886 197.3117,30.9516 216.0007,30.9516 C234.6887,30.9516 249.9227,45.2886 249.9227,64.7456 C249.9227,84.3306 234.6887,98.5386 216.0007,98.5386" id="Fill-13" fill="#FBBC05"></path>
                    <path d="M289.8064,44.2646 C279.5664,44.2646 270.9894,52.8406 270.9894,64.6176 C270.9894,76.5216 279.5664,85.2266 289.8064,85.2266 C299.9184,85.2266 307.8554,76.5216 307.8554,64.6176 C307.8554,52.8406 299.9184,44.2646 289.8064,44.2646 L289.8064,44.2646 Z M306.8304,96.4916 L306.8304,90.9866 L306.3194,90.9866 C302.9914,94.9546 296.5904,98.5386 288.5264,98.5386 C271.6294,98.5386 256.1404,83.6906 256.1404,64.6176 C256.1404,45.6726 271.6294,30.9516 288.5264,30.9516 C296.5904,30.9516 302.9914,34.5356 306.3194,38.6326 L306.8304,38.6326 L306.8304,33.7676 C306.8304,20.8396 299.9184,13.9276 288.7824,13.9276 C279.6944,13.9276 274.0614,20.4556 271.7574,25.9596 L258.8284,20.5836 C262.5404,11.6226 272.3974,0.6146 288.7824,0.6146 C306.1914,0.6146 320.9114,10.8546 320.9114,35.8156 L320.9114,96.4916 L306.8304,96.4916 Z" id="Fill-15" fill="#4285F4"></path>
                    <polygon id="Fill-17" fill="#34A853" points="331.152 132.333 346.001 132.333 346.001 33 331.152 33"></polygon>
                    <path d="M385.5544,85.4824 C391.4434,85.4824 396.4354,82.5384 398.0994,78.3144 L367.8904,65.7694 C367.5054,78.8264 378.0024,85.4824 385.5544,85.4824 M386.7064,44.2644 C379.1544,44.2644 373.7784,47.7204 370.3224,54.5044 L415.5084,73.1934 L413.9724,77.0344 C411.1564,84.5864 402.5794,98.5394 385.0424,98.5394 C367.6334,98.5394 353.1694,84.8424 353.1694,64.7454 C353.1694,45.8004 367.5054,30.9524 386.7064,30.9524 C402.1954,30.9524 411.1564,40.4244 414.8674,45.9284 L403.3474,53.6084 C399.5074,47.9764 394.2594,44.2644 386.7064,44.2644" id="Fill-19" fill="#EB4335"></path>
                </g>
            </g>
        </g>
    </g>
</svg>